<?xml version="1.0" standalone="no"?><!DOCTYPE svg PUBLIC "-//W3C//DTD SVG 1.1//EN" "http://www.w3.org/Graphics/SVG/1.1/DTD/svg11.dtd"><svg xmlns:xlink="http://www.w3.org/1999/xlink" version="1.1" class="highcharts-root" style="font-family: &quot;Helvetica Neue&quot;, Helvetica, Arial, sans-serif; font-size: 12px;" xmlns="http://www.w3.org/2000/svg" width="746" height="468" viewBox="0 0 746 468"><desc>Created with Highcharts 10.1.0</desc><defs><clipPath id="highcharts-m8jbhvb-2632-"><rect x="0" y="0" width="683" height="371" fill="none"></rect></clipPath><clipPath id="highcharts-m8jbhvb-3155-"><rect x="0" y="0" width="683" height="371" fill="none"></rect></clipPath><clipPath id="highcharts-m8jbhvb-3683-"><rect x="0" y="40" width="683" height="371" fill="none"></rect></clipPath></defs><rect fill="#ffffff" class="highcharts-background" x="0" y="0" width="746" height="468" rx="0" ry="0"></rect><rect fill="none" class="highcharts-plot-background" x="0" y="40" width="683" height="371"></rect><g class="highcharts-grid highcharts-xaxis-grid" data-z-index="1"><path fill="none" stroke="#EDF3F6" stroke-width="1" stroke-dasharray="none" data-z-index="1" class="highcharts-grid-line" d="M 93.5 40 L 93.5 411" opacity="1"></path><path fill="none" stroke="#EDF3F6" stroke-width="1" stroke-dasharray="none" data-z-index="1" class="highcharts-grid-line" d="M 228.5 40 L 228.5 411" opacity="1"></path><path fill="none" stroke="#EDF3F6" stroke-width="1" stroke-dasharray="none" data-z-index="1" class="highcharts-grid-line" d="M 364.5 40 L 364.5 411" opacity="1"></path><path fill="none" stroke="#EDF3F6" stroke-width="1" stroke-dasharray="none" data-z-index="1" class="highcharts-grid-line" d="M 499.5 40 L 499.5 411" opacity="1"></path><path fill="none" stroke="#EDF3F6" stroke-width="1" stroke-dasharray="none" data-z-index="1" class="highcharts-grid-line" d="M 635.5 40 L 635.5 411" opacity="1"></path></g><g class="highcharts-grid highcharts-yaxis-grid" data-z-index="1"><path fill="none" stroke="#E7E7E7" stroke-width="1" stroke-dasharray="none" data-z-index="1" class="highcharts-grid-line" d="M 0 411.5 L 683 411.5" opacity="1"></path><path fill="none" stroke="#E7E7E7" stroke-width="1" stroke-dasharray="none" data-z-index="1" class="highcharts-grid-line" d="M 0 358.5 L 683 358.5" opacity="1"></path><path fill="none" stroke="#E7E7E7" stroke-width="1" stroke-dasharray="none" data-z-index="1" class="highcharts-grid-line" d="M 0 305.5 L 683 305.5" opacity="1"></path><path fill="none" stroke="#E7E7E7" stroke-width="1" stroke-dasharray="none" data-z-index="1" class="highcharts-grid-line" d="M 0 252.5 L 683 252.5" opacity="1"></path><path fill="none" stroke="#E7E7E7" stroke-width="1" stroke-dasharray="none" data-z-index="1" class="highcharts-grid-line" d="M 0 199.5 L 683 199.5" opacity="1"></path><path fill="none" stroke="#E7E7E7" stroke-width="1" stroke-dasharray="none" data-z-index="1" class="highcharts-grid-line" d="M 0 146.5 L 683 146.5" opacity="1"></path><path fill="none" stroke="#E7E7E7" stroke-width="1" stroke-dasharray="none" data-z-index="1" class="highcharts-grid-line" d="M 0 93.5 L 683 93.5" opacity="1"></path><path fill="none" stroke="#E7E7E7" stroke-width="1" stroke-dasharray="none" data-z-index="1" class="highcharts-grid-line" d="M 0 39.5 L 683 39.5" opacity="1"></path></g><g class="highcharts-grid highcharts-yaxis-grid" data-z-index="1"></g><g class="highcharts-grid highcharts-yaxis-grid" data-z-index="1"></g><rect fill="none" class="highcharts-plot-border" data-z-index="1" x="0" y="40" width="683" height="371"></rect><g class="highcharts-axis highcharts-xaxis" data-z-index="2"><path fill="none" class="highcharts-axis-line" stroke="#E6E6E6" stroke-width="1" data-z-index="7" d="M 0 411.5 L 683 411.5"></path></g><g class="highcharts-axis highcharts-yaxis" data-z-index="2"><path fill="none" class="highcharts-axis-line" data-z-index="7" d="M 716 40 L 716 411"></path></g><g class="highcharts-axis highcharts-yaxis" data-z-index="2"><path fill="none" class="highcharts-axis-line" stroke="#E6E6E6" stroke-width="1" data-z-index="7" d="M -1.5 40 L -1.5 411"></path></g><g class="highcharts-series-group" data-z-index="3"><g class="highcharts-series highcharts-series-0 highcharts-line-series" data-z-index="90" opacity="1" transform="translate(0,40) scale(1 1)" clip-path="url(#highcharts-m8jbhvb-3155-)"><path fill="none" d="M 0 116.5735 L 1.2984790874525 116.20249999999999 L 2.5969581749049 115.3545 L 3.8954372623574 115.487 L 5.1939163498099 108.64999999999998 L 6.4923954372624 124.8415 L 7.7908745247148 126.69649999999999 L 9.0893536121673 132.818 L 10.38783269962 127.571 L 11.686311787072 132.3675 L 12.984790874525 142.358 L 14.283269961977 146.121 L 15.58174904943 142.9145 L 16.880228136882 141.3245 L 18.178707224335 137.058 L 19.477186311787 135.3885 L 20.77566539924 143.2855 L 22.074144486692 141.1655 L 23.372623574144 136.051 L 24.671102661597 130.38 L 25.969581749049 124.3115 L 27.268060836502 123.066 L 28.566539923954 117.76599999999999 L 29.865019011407 116.918 L 31.163498098859 111.90949999999998 L 32.461977186312 117.34200000000001 L 33.760456273764 116.971 L 35.058935361217 124.2055 L 36.357414448669 130.698 L 37.655893536122 127.33250000000001 L 38.954372623574 123.35749999999999 L 40.252851711027 122.6685 L 41.551330798479 113.34050000000002 L 42.849809885932 125.345 L 44.148288973384 129.0815 L 45.446768060836 137.7735 L 46.745247148289 124.55000000000001 L 48.043726235741 117.6335 L 49.342205323194 116.494 L 50.640684410646 116.547 L 51.939163498099 121.5025 L 53.237642585551 127.27950000000001 L 54.536121673004 116.5205 L 55.834600760456 111.69749999999999 L 57.133079847909 122.72149999999999 L 58.431558935361 115.11600000000001 L 59.730038022814 97.46699999999998 L 61.028517110266 90.23250000000002 L 62.326996197719 84.66750000000002 L 63.625475285171 93.54500000000002 L 64.923954372624 87.60899999999998 L 66.222433460076 90.17950000000002 L 67.520912547529 86.231 L 68.819391634981 88.98700000000002 L 70.117870722433 85.72750000000002 L 71.416349809886 78.09550000000002 L 72.714828897338 84.24349999999998 L 74.013307984791 93.59800000000001 L 75.311787072243 98.3945 L 76.610266159696 95.82400000000001 L 77.908745247148 100.64699999999999 L 79.207224334601 103.8535 L 80.505703422053 111.69749999999999 L 81.804182509506 120.2835 L 83.102661596958 120.31 L 84.401140684411 122.32400000000001 L 85.699619771863 119.674 L 86.998098859316 125.292 L 88.296577946768 112.22750000000002 L 89.595057034221 115.00999999999999 L 90.893536121673 107.80200000000002 L 92.192015209125 105.15199999999999 L 93.490494296578 122.006 L 94.78897338403 125.292 L 96.087452471483 120.9195 L 97.385931558935 114.904 L 98.684410646388 112.6515 L 99.98288973384 106.31799999999998 L 101.28136882129 105.20499999999998 L 102.57984790875 100.17000000000002 L 103.8783269962 99.13650000000001 L 105.17680608365 99.16300000000001 L 106.4752851711 108.94150000000002 L 107.77376425856 107.43099999999998 L 109.07224334601 101.5745 L 110.37072243346 102.97899999999998 L 111.66920152091 96.089 L 112.96768060837 94.60500000000002 L 114.26615969582 104.41000000000003 L 115.56463878327 106.63600000000002 L 116.86311787072 106.0265 L 118.16159695817 100.64699999999999 L 119.46007604563 94.47250000000003 L 120.75855513308 98.81849999999997 L 122.05703422053 98.95100000000002 L 123.35551330798 87.68849999999998 L 124.65399239544 86.76100000000002 L 125.95247148289 90.78899999999999 L 127.25095057034 95.24099999999999 L 128.54942965779 103.8005 L 129.84790874525 97.70549999999997 L 131.1463878327 100.4615 L 132.44486692015 111.618 L 133.7433460076 112.22750000000002 L 135.04182509506 113.02249999999998 L 136.34030418251 122.82749999999999 L 137.63878326996 116.70599999999999 L 138.93726235741 123.7815 L 140.23574144487 126.4845 L 141.53422053232 126.11349999999999 L 142.83269961977 123.119 L 144.13117870722 133.189 L 145.42965779468 143.577 L 146.72813688213 151.7125 L 148.02661596958 156.3235 L 149.32509505703 157.569 L 150.62357414449 162.5775 L 151.92205323194 170.077 L 153.22053231939 168.2485 L 154.51901140684 195.7025 L 155.8174904943 196.524 L 157.11596958175 217.8035 L 158.4144486692 221.222 L 159.71292775665 225.9655 L 161.01140684411 231.3715 L 162.30988593156 242.846 L 163.60836501901 241.9715 L 164.90684410646 250.1865 L 166.20532319392 243.164 L 167.50380228137 234.0215 L 168.80228136882 231.133 L 170.10076045627 237.599 L 171.39923954373 239.136 L 172.69771863118 239.5335 L 173.99619771863 252.174 L 175.29467680608 249.84199999999998 L 176.59315589354 241.4945 L 177.89163498099 240.779 L 179.19011406844 234.154 L 180.48859315589 223.289 L 181.78707224335 219.5525 L 183.0855513308 214.2525 L 184.38403041825 213.6165 L 185.6825095057 212.8215 L 186.98098859316 212.742 L 188.27946768061 211.205 L 189.57794676806 214.3055 L 190.87642585551 212.106 L 192.17490494297 213.0335 L 193.47338403042 212.9805 L 194.77186311787 220.1355 L 196.07034220532 231.239 L 197.36882129278 236.1415 L 198.66730038023 243.429 L 199.96577946768 246.132 L 201.26425855513 254.74450000000002 L 202.56273764259 258.375 L 203.86121673004 263.8075 L 205.15969581749 251.167 L 206.45817490494 248.9675 L 207.7566539924 252.7305 L 209.05513307985 252.598 L 210.3536121673 249.89499999999998 L 211.65209125475 250.31900000000002 L 212.95057034221 239.4805 L 214.24904942966 245.761 L 215.54752851711 252.81 L 216.84600760456 247.5365 L 218.14448669202 253.63150000000002 L 219.44296577947 263.039 L 220.74144486692 263.9665 L 222.03992395437 260.4685 L 223.33840304183 265.0795 L 224.63688212928 276.60699999999997 L 225.93536121673 278.9655 L 227.23384030418 270.03499999999997 L 228.53231939163 272.7645 L 229.83079847909 283.126 L 231.12927756654 293.03700000000003 L 232.42775665399 285.6965 L 233.72623574144 281.907 L 235.0247148289 289.1415 L 236.32319391635 292.984 L 237.6216730038 292.454 L 238.92015209125 284.133 L 240.21863117871 275.812 L 241.51711026616 268.975 L 242.81558935361 266.484 L 244.11406844106 266.431 L 245.41254752852 273.5065 L 246.71102661597 265.742 L 248.00950570342 264.046 L 249.30798479087 255.1155 L 250.60646387833 249.312 L 251.90494296578 252.651 L 253.20342205323 248.5435 L 254.50190114068 244.4625 L 255.80038022814 240.2755 L 257.09885931559 242.157 L 258.39733840304 240.9645 L 259.69581749049 243.853 L 260.99429657795 244.75400000000002 L 262.2927756654 241.1765 L 263.59125475285 250.6635 L 264.8897338403 249.23250000000002 L 266.18821292776 253.8965 L 267.48669201521 260.76 L 268.78517110266 260.23 L 270.08365019011 253.1015 L 271.38212927757 242.422 L 272.68060836502 244.75400000000002 L 273.97908745247 253.23399999999998 L 275.27756653992 249.418 L 276.57604562738 256.9705 L 277.87452471483 253.128 L 279.17300380228 243.164 L 280.47148288973 239.0035 L 281.76996197719 237.5725 L 283.06844106464 236.2475 L 284.36692015209 241.945 L 285.66539923954 254.2145 L 286.963878327 255.9635 L 288.26235741445 249.92149999999998 L 289.5608365019 248.941 L 290.85931558935 234.048 L 292.15779467681 234.525 L 293.45627376426 233.465 L 294.75475285171 230.497 L 296.05323193916 228.642 L 297.35171102662 228.4565 L 298.65019011407 232.0075 L 299.94866920152 229.7285 L 301.24714828897 230.6825 L 302.54562737643 228.2975 L 303.84410646388 228.3505 L 305.14258555133 229.4105 L 306.44106463878 227.9265 L 307.73954372624 229.914 L 309.03802281369 242.5015 L 310.33650190114 242.1305 L 311.63498098859 243.429 L 312.93346007605 236.91 L 314.2319391635 232.564 L 315.53041825095 230.656 L 316.8288973384 239.507 L 318.12737642586 240.5935 L 319.42585551331 248.517 L 320.72433460076 244.617525 L 322.02281368821 237.0955 L 323.32129277567 238.65635 L 324.61977186312 244.821575 L 325.91825095057 248.99506 L 327.21673003802 252.87572 L 328.51520912548 257.0235 L 329.81368821293 248.994 L 331.11216730038 253.09566999999998 L 332.41064638783 247.65999 L 333.70912547529 250.00736 L 335.00760456274 238.67755 L 336.30608365019 239.995395 L 337.60456273764 241.927245 L 338.9030418251 242.385695 L 340.20152091255 244.40155 L 341.5 245.652085 L 342.79847908745 244.886765 L 344.0969581749 239.28705 L 345.39543726236 237.048595 L 346.69391634981 234.204085 L 347.99239543726 240.345195 L 349.29087452471 234.6575 L 350.58935361217 233.17244 L 351.88783269962 228.046015 L 353.18631178707 223.554 L 354.48479087452 220.372675 L 355.78326996198 221.098245 L 357.08174904943 215.329725 L 358.38022813688 216.75198 L 359.67870722433 219.50427 L 360.97718631179 218.84442 L 362.27566539924 216.0545 L 363.57414448669 210.887 L 364.87262357414 207.46638 L 366.1711026616 200.23665 L 367.46958174905 202.77853 L 368.7680608365 195.43485 L 370.06653992395 199.723345 L 371.36501901141 213.47817 L 372.66349809886 207.451805 L 373.96197718631 202.388715 L 375.26045627376 207.5586 L 376.55893536122 205.978935 L 377.85741444867 206.118855 L 379.15589353612 194.6054 L 380.45437262357 198.25763 L 381.75285171103 205.95535 L 383.05133079848 192.805255 L 384.34980988593 189.82321 L 385.64828897338 190.600455 L 386.94676806084 185.601495 L 388.24524714829 183.47063 L 389.54372623574 180.80367 L 390.84220532319 191.118 L 392.14068441065 196.722485 L 393.4391634981 196.789 L 394.73764258555 200.025445 L 396.036121673 189.263 L 397.33460076046 175.924755 L 398.63307984791 174.92544 L 399.93155893536 183.30633 L 401.23003802281 184.281 L 402.52851711027 187.990205 L 403.82699619772 189.5015 L 405.12547528517 191.7805 L 406.42395437262 196.52612 L 407.72243346008 188.87663 L 409.02091254753 185.54505 L 410.31939163498 190.170095 L 411.61787072243 188.403605 L 412.91634980989 181.135715 L 414.21482889734 175.96212 L 415.51330798479 173.999 L 416.81178707224 179.282835 L 418.1102661597 187.30995 L 419.40874524715 191.577775 L 420.7072243346 204.020585 L 422.00570342205 211.4965 L 423.30418250951 219.778015 L 424.60266159696 237.278615 L 425.90114068441 232.29105 L 427.19961977186 231.518045 L 428.49809885932 235.32 L 429.79657794677 249.84730000000002 L 431.09505703422 250.356895 L 432.39353612167 243.906 L 433.69201520913 233.199205 L 434.99049429658 229.16405 L 436.28897338403 229.347165 L 437.58745247148 224.70145 L 438.88593155894 231.7266 L 440.18441064639 222.608215 L 441.48288973384 218.861115 L 442.78136882129 222.07265 L 444.07984790875 222.140225 L 445.3783269962 216.07517 L 446.67680608365 214.91129 L 447.9752851711 211.629 L 449.27376425856 202.598065 L 450.57224334601 202.22415 L 451.87072243346 200.057775 L 453.16920152091 204.30175 L 454.46768060836 210.055695 L 455.76615969582 208.154055 L 457.06463878327 202.889565 L 458.36311787072 214.798665 L 459.66159695817 231.29624 L 460.96007604563 227.9265 L 462.25855513308 231.353745 L 463.55703422053 217.57242 L 464.85551330798 213.430735 L 466.15399239544 217.81516 L 467.45247148289 211.32319 L 468.75095057034 222.043765 L 470.04942965779 222.37899 L 471.34790874525 224.189735 L 472.6463878327 226.983365 L 473.94486692015 224.465335 L 475.2433460076 230.137925 L 476.54182509506 225.40105 L 477.84030418251 220.025525 L 479.13878326996 209.01027 L 480.43726235741 215.03054 L 481.73574144487 222.26663 L 483.03422053232 231.121605 L 484.33269961977 225.453255 L 485.63117870722 228.69818 L 486.92965779468 220.465425 L 488.22813688213 221.89033 L 489.52661596958 219.304725 L 490.82509505703 217.580105 L 492.12357414449 217.33074 L 493.42205323194 222.94715 L 494.72053231939 214.323785 L 496.01901140684 212.327805 L 497.3174904943 211.48696 L 498.61596958175 207.8872 L 499.9144486692 202.622445 L 501.21292775665 215.07771 L 502.51140684411 215.869 L 503.80988593156 227.3965 L 505.10836501901 234.366 L 506.40684410646 237.488495 L 507.70532319392 233.0675 L 509.00380228137 229.396455 L 510.30228136882 252.386 L 511.60076045627 260.866 L 512.89923954373 283.815 L 514.19771863118 311.0305 L 515.49619771863 313.9985 L 516.79467680608 295.899 L 518.09315589354 310.686 L 519.39163498099 322.5845 L 520.69011406844 326.109 L 521.98859315589 318.58299999999997 L 523.28707224335 305.43899999999996 L 524.5855513308 293.0105 L 525.88403041825 282.8875 L 527.1825095057 276.9515 L 528.48098859316 266.1925 L 529.77946768061 274.911 L 531.07794676806 265.6625 L 532.37642585551 269.00149999999996 L 533.67490494297 263.27750000000003 L 534.97338403042 263.5425 L 536.27186311787 263.4365 L 537.57034220532 261.5815 L 538.86882129278 264.2845 L 540.16730038023 261.767 L 541.46577946768 259.6735 L 542.76425855513 258.799 L 544.06273764259 257.1295 L 545.36121673004 265.6095 L 546.65969581749 272.07550000000003 L 547.95817490494 262.88 L 549.2566539924 264.3375 L 550.55513307985 272.8175 L 551.8536121673 263.40999999999997 L 553.15209125475 262.668 L 554.45057034221 265.3975 L 555.74904942966 276.1565 L 557.04752851711 272.579 L 558.34600760456 264.6555 L 559.64448669202 259.3025 L 560.94296577947 250.34550000000002 L 562.24144486692 248.411 L 563.53992395437 247.5895 L 564.83840304183 240.885 L 566.13688212928 243.1905 L 567.43536121673 242.422 L 568.73384030418 232.564 L 570.03231939163 232.246 L 571.33079847909 232.4845 L 572.62927756654 232.67 L 573.92775665399 220.3475 L 575.22623574144 213.4045 L 576.5247148289 213.961 L 577.82319391635 208.025 L 579.1216730038 195.8615 L 580.42015209125 197.1335 L 581.71863117871 208.184 L 583.01711026616 209.4295 L 584.31558935361 208.1575 L 585.61406844106 213.802 L 586.91254752852 203.7055 L 588.21102661597 206.329 L 589.50950570342 202.513 L 590.80798479087 199.015 L 592.10646387833 197.7695 L 593.40494296578 202.513 L 594.70342205323 195.835 L 596.00190114068 187.1165 L 597.30038022814 183.91 L 598.59885931559 182.0815 L 599.89733840304 174.7675 L 601.19581749049 171.826 L 602.49429657795 173.416 L 603.7927756654 180.7035 L 605.09125475285 180.0145 L 606.3897338403 175.0325 L 607.68821292776 190.058 L 608.98669201521 189.634 L 610.28517110266 206.329 L 611.58365019011 188.839 L 612.88212927757 187.3815 L 614.18060836502 186.242 L 615.47908745247 180.2795 L 616.77756653992 174.953 L 618.07604562738 169.918 L 619.37452471483 160.7225 L 620.67300380228 156.668 L 621.97148288973 152.375 L 623.26996197719 154.283 L 624.56844106464 158.6555 L 625.86692015209 159.8215 L 627.16539923954 171.6405 L 628.463878327 191.224 L 629.76235741445 195.835 L 631.0608365019 182.267 L 632.35931558935 184.5725 L 633.65779467681 176.437 L 634.95627376426 172.568 L 636.25475285171 163.134 L 637.55323193916 152.587 L 638.85171102662 148.029 L 640.15019011407 144.6105 L 641.44866920152 131.6255 L 642.74714828897 133.295 L 644.04562737643 136.21 L 645.34410646388 132.7915 L 646.64258555133 73.9085 L 647.94106463878 97.51999999999998 L 649.23954372624 104.27749999999997 L 650.53802281369 76.69099999999997 L 651.83650190114 111.565 L 653.13498098859 113.92349999999999 L 654.43346007605 91.584 L 655.7319391635 103.21749999999997 L 657.03041825095 98.209 L 658.3288973384 83.9255 L 659.62737642586 89.3845 L 660.92585551331 86.99950000000001 L 662.22433460076 73.59050000000002 L 663.52281368821 62.9905 L 664.82129277567 65.34899999999999 L 666.11977186312 90.68299999999999 L 667.41825095057 94.20749999999998 L 668.71673003802 91.7165 L 670.01520912548 101.94549999999998 L 671.31368821293 120.3895 L 672.61216730038 120.04499999999999 L 673.91064638783 109.65699999999998 L 675.20912547529 135.1235 L 676.50760456274 130.17436" class="highcharts-graph" data-z-index="1" stroke="#2962FF" stroke-width="2" stroke-linejoin="round" stroke-linecap="round"></path></g><g class="highcharts-markers highcharts-series-0 highcharts-line-series" data-z-index="90" opacity="1" transform="translate(0,40) scale(1 1)" clip-path="none"></g></g><text x="736" text-anchor="end" class="highcharts-title" data-z-index="4" style="color: rgb(51, 51, 51); font-size: 12px; fill: rgb(51, 51, 51);" y="464">source: tradingeconomics.com</text><text x="14" text-anchor="start" class="highcharts-subtitle" data-z-index="4" style="color: rgb(51, 51, 51); fill: rgb(51, 51, 51); font-size: 13px;" y="25">Crude Oil WTI<tspan style="color: gray; font-size: 9px; fill: gray;">  (UTC+9)</tspan></text><text x="0" text-anchor="start" class="highcharts-caption" data-z-index="4" style="color: rgb(102, 102, 102); fill: rgb(102, 102, 102);" y="475"></text><g class="highcharts-axis-labels highcharts-xaxis-labels" data-z-index="7"><text x="93.861488321564" text-anchor="middle" transform="translate(0,0)" style="color: black; cursor: default; font-size: 12px; font-weight: 400; fill: black;" y="431" opacity="1">2014</text><text x="229.27430744161" text-anchor="middle" transform="translate(0,0)" style="color: black; cursor: default; font-size: 12px; font-weight: 400; fill: black;" y="431" opacity="1">2016</text><text x="364.87262357414" text-anchor="middle" transform="translate(0,0)" style="color: black; cursor: default; font-size: 12px; font-weight: 400; fill: black;" y="431" opacity="1">2018</text><text x="500.28544269419" text-anchor="middle" transform="translate(0,0)" style="color: black; cursor: default; font-size: 12px; font-weight: 400; fill: black;" y="431" opacity="1">2020</text><text x="635.88375882672" text-anchor="middle" transform="translate(0,0)" style="color: black; cursor: default; font-size: 12px; font-weight: 400; fill: black;" y="431" opacity="1">2022</text></g><g class="highcharts-axis-labels highcharts-yaxis-labels" data-z-index="7"><text x="0" text-anchor="start" transform="translate(0,0)" style="color: unset; cursor: default; font-size: 12px; fill: unset;" visibility="hidden">0</text><text x="696" text-anchor="start" transform="translate(0,0)" style="color: unset; cursor: default; font-size: 12px; fill: unset;" y="363" opacity="1">20</text><text x="696" text-anchor="start" transform="translate(0,0)" style="color: unset; cursor: default; font-size: 12px; fill: unset;" y="310" opacity="1">40</text><text x="696" text-anchor="start" transform="translate(0,0)" style="color: unset; cursor: default; font-size: 12px; fill: unset;" y="257" opacity="1">60</text><text x="696" text-anchor="start" transform="translate(0,0)" style="color: unset; cursor: default; font-size: 12px; fill: unset;" y="204" opacity="1">80</text><text x="696" text-anchor="start" transform="translate(0,0)" style="color: unset; cursor: default; font-size: 12px; fill: unset;" y="151" opacity="1">100</text><text x="696" text-anchor="start" transform="translate(0,0)" style="color: unset; cursor: default; font-size: 12px; fill: unset;" y="98" opacity="1">120</text><text x="0" text-anchor="start" transform="translate(0,0)" style="color: unset; cursor: default; font-size: 12px; fill: unset;" visibility="hidden">140</text></g><g class="highcharts-axis-labels highcharts-yaxis-labels" data-z-index="7"></g><g class="highcharts-axis-labels highcharts-yaxis-labels" data-z-index="7"></g><g class="highcharts-control-points" data-z-index="99" clip-path="url(#highcharts-m8jbhvb-3683-)"></g><g class="highcharts-axis highcharts-yaxis" data-z-index="9999"><path fill="none" class="highcharts-tick" stroke="#E7E7E7" stroke-width="1.5" d="M 684 411.75 L 694 411.75" opacity="1"></path><path fill="none" class="highcharts-tick" stroke="#E7E7E7" stroke-width="1.5" d="M 684 358.75 L 694 358.75" opacity="1"></path><path fill="none" class="highcharts-tick" stroke="#E7E7E7" stroke-width="1.5" d="M 684 305.75 L 694 305.75" opacity="1"></path><path fill="none" class="highcharts-tick" stroke="#E7E7E7" stroke-width="1.5" d="M 684 252.75 L 694 252.75" opacity="1"></path><path fill="none" class="highcharts-tick" stroke="#E7E7E7" stroke-width="1.5" d="M 684 199.75 L 694 199.75" opacity="1"></path><path fill="none" class="highcharts-tick" stroke="#E7E7E7" stroke-width="1.5" d="M 684 146.75 L 694 146.75" opacity="1"></path><path fill="none" class="highcharts-tick" stroke="#E7E7E7" stroke-width="1.5" d="M 684 93.75 L 694 93.75" opacity="1"></path><path fill="none" class="highcharts-tick" stroke="#E7E7E7" stroke-width="1.5" d="M 684 39.25 L 694 39.25" opacity="1"></path><path fill="none" class="highcharts-axis-line" stroke="#E6E6E6" stroke-width="1" data-z-index="7" d="M 684.5 40 L 684.5 411"></path></g><path fill="none" d="M 0 0 L 1536 0" stroke="#524f4f" stroke-width="1" stroke-dasharray="8,3" data-z-index="10" class="crossHairLine" visibility="hidden"></path><path fill="none" d="M 0 40 L 0 904" stroke="#524f4f" stroke-width="1" stroke-dasharray="8,3" data-z-index="10" class="crossHairLine" visibility="hidden"></path></svg>